<?xml version="1.0" encoding="utf-8"?>
<!-- Generator: Adobe Illustrator 19.2.0, SVG Export Plug-In . SVG Version: 6.00 Build 0)  -->
<svg version="1.1" id="Layer_1" xmlns="http://www.w3.org/2000/svg" xmlns:xlink="http://www.w3.org/1999/xlink" x="0px" y="0px"
	 viewBox="0 0 198.2 173.6" style="enable-background:new 0 0 198.2 173.6;" xml:space="preserve">
<style type="text/css">
	.st0{fill:#010101;}
</style>
<path class="st0" d="M86.5,0C38.7,0,0,7.9,0,17.6c0,0.4,0.1,0.8,0.2,1.2L23,142.3c1.7,9,7.6,16.7,16,20.3
	c19.6,8.6,57.4,19.8,94.7-0.3c9-4.9,15.3-13.6,17.1-23.7l6.3-34.6c-53.2-2.3-88.9-16-95.4-18.6c-2.2,0.9-4.5,1.4-7,1.4
	c-9.9,0-18-8.1-18-18s8.1-18,18-18c9.7,0,17.6,7.7,18,17.4c10.9,4,43.2,14.4,88.1,16l11.9-65.4c0.1-0.4,0.2-0.8,0.2-1.2
	C173,7.9,134.3,0,86.5,0z M86.5,35.1c-39.7-1.7-54-5.3-71-10.3c0,0,24-14,71-13.3c47,0.7,71,11.3,71,11.3S126.2,36.8,86.5,35.1z"/>
<path class="st0" d="M66.2,76.9c0,0,97.5,27,120,13c20.5-12.8,13-33.9-11-43.3l-2.8,13.1c0,0,15.7,6.6,9.9,13.3
	c-8.3,9.6-31.5,5.2-40.9,3.4c-34.5-6.9-83-25.2-83-25.2s-16.8,5.3-10.9,20.2C52.8,82.6,66.2,76.9,66.2,76.9z"/>
</svg>
