<?xml version="1.0" encoding="utf-8"?>
<!-- Generator: Adobe Illustrator 19.2.0, SVG Export Plug-In . SVG Version: 6.00 Build 0)  -->
<svg version="1.1" id="Layer_1" xmlns="http://www.w3.org/2000/svg" xmlns:xlink="http://www.w3.org/1999/xlink" x="0px" y="0px"
	 viewBox="0 0 513.8 480.6" style="enable-background:new 0 0 513.8 480.6;" xml:space="preserve">
<style type="text/css">
	.st0{fill:#222829;}
</style>
<g>
	<path class="st0" d="M6.1,318.5c-3.5,0-5.7-0.4-6.1-0.4l1.3-6.9l1.2-6.9c0.2,0,15.7,2.4,37.4-10.6c20.5-12.3,50.9-41.1,78.6-108.5
		c27.3-66.3,48.4-113.3,69-142.6c20.9-29.6,41.8-42.1,69.9-41.7c57.1,0.8,93.9,80.6,132.7,177.1c18.5,46,39.5,79.8,62.4,100.5
		c18,16.3,37.2,24.8,58.9,26.1l-0.8,14c-25-1.5-47-11.2-67.5-29.7c-24.4-22.1-46.6-57.7-66-105.7c-18.2-45.3-38-91.6-59.1-123.3
		c-20.2-30.4-39.5-44.7-60.8-45c-45.8-0.6-70.4,41.2-125.8,175.7C83,308.2,25,318.5,6.1,318.5z"/>
</g>
<g>
	<rect x="257.3" y="0.8" class="st0" width="191.7" height="14"/>
</g>
<g>
	<rect x="465" class="st0" width="16.4" height="16.4"/>
</g>
<g>
	<rect x="33" y="119.3" class="st0" width="16.4" height="16.4"/>
</g>
<g>
	<rect x="7.4" y="367.6" class="st0" width="16.4" height="16.4"/>
</g>
<g>
	<rect x="41.2" y="367.6" class="st0" width="16.4" height="16.4"/>
</g>
<g>
	<rect x="75" y="367.6" class="st0" width="16.4" height="16.4"/>
</g>
<g>
	<rect x="106.7" y="367.6" class="st0" width="16.4" height="16.4"/>
</g>
<g>
	<rect x="137.6" y="367.6" class="st0" width="16.4" height="16.4"/>
</g>
<g>
	<rect x="168.4" y="367.6" class="st0" width="16.4" height="16.4"/>
</g>
<g>
	<rect x="200.8" y="367.6" class="st0" width="16.4" height="16.4"/>
</g>
<g>
	<rect x="233.4" y="367.6" class="st0" width="16.4" height="16.4"/>
</g>
<g>
	<rect x="264.9" y="367.6" class="st0" width="16.4" height="16.4"/>
</g>
<g>
	<rect x="297" y="367.6" class="st0" width="16.4" height="16.4"/>
</g>
<g>
	<rect x="328.8" y="367.6" class="st0" width="16.4" height="16.4"/>
</g>
<g>
	<rect x="361.3" y="367.6" class="st0" width="16.4" height="16.4"/>
</g>
<g>
	<rect x="392.6" y="367.6" class="st0" width="16.4" height="16.4"/>
</g>
<g>
	<rect x="424.7" y="367.6" class="st0" width="16.4" height="16.4"/>
</g>
<g>
	<rect x="457.7" y="367.6" class="st0" width="16.4" height="16.4"/>
</g>
<g>
	<rect x="488.7" y="367.6" class="st0" width="16.4" height="16.4"/>
</g>
<g>
	<rect x="75" y="399.8" class="st0" width="16.4" height="16.4"/>
</g>
<g>
	<rect x="106.7" y="399.8" class="st0" width="16.4" height="16.4"/>
</g>
<g>
	<rect x="137.6" y="399.8" class="st0" width="16.4" height="16.4"/>
</g>
<g>
	<rect x="168.4" y="399.8" class="st0" width="16.4" height="16.4"/>
</g>
<g>
	<rect x="200.8" y="399.8" class="st0" width="16.4" height="16.4"/>
</g>
<g>
	<rect x="233.4" y="399.8" class="st0" width="16.4" height="16.4"/>
</g>
<g>
	<rect x="264.9" y="399.8" class="st0" width="16.4" height="16.4"/>
</g>
<g>
	<rect x="297" y="399.8" class="st0" width="16.4" height="16.4"/>
</g>
<g>
	<rect x="328.8" y="399.8" class="st0" width="16.4" height="16.4"/>
</g>
<g>
	<rect x="361.3" y="399.8" class="st0" width="16.4" height="16.4"/>
</g>
<g>
	<rect x="392.6" y="399.8" class="st0" width="16.4" height="16.4"/>
</g>
<g>
	<rect x="424.7" y="399.8" class="st0" width="16.4" height="16.4"/>
</g>
<g>
	<rect x="137.6" y="432" class="st0" width="16.4" height="16.4"/>
</g>
<g>
	<rect x="168.4" y="432" class="st0" width="16.4" height="16.4"/>
</g>
<g>
	<rect x="200.8" y="432" class="st0" width="16.4" height="16.4"/>
</g>
<g>
	<rect x="233.4" y="432" class="st0" width="16.4" height="16.4"/>
</g>
<g>
	<rect x="264.9" y="432" class="st0" width="16.4" height="16.4"/>
</g>
<g>
	<rect x="297" y="432" class="st0" width="16.4" height="16.4"/>
</g>
<g>
	<rect x="328.8" y="432" class="st0" width="16.4" height="16.4"/>
</g>
<g>
	<rect x="361.3" y="432" class="st0" width="16.4" height="16.4"/>
</g>
<g>
	<rect x="200.8" y="464.2" class="st0" width="16.4" height="16.4"/>
</g>
<g>
	<rect x="233.4" y="464.2" class="st0" width="16.4" height="16.4"/>
</g>
<g>
	<rect x="264.9" y="464.2" class="st0" width="16.4" height="16.4"/>
</g>
<g>
	<rect x="297" y="464.2" class="st0" width="16.4" height="16.4"/>
</g>
<g>
	<rect x="1.6" y="119.3" class="st0" width="16.4" height="16.4"/>
</g>
<g>
	<rect x="497.4" class="st0" width="16.4" height="16.4"/>
</g>
<g>
	<rect x="64.3" y="120.5" class="st0" width="86.3" height="14"/>
</g>
<g>
	<path class="st0" d="M256.1,335.8"/>
</g>
<g>
	<rect x="250.3" y="10.7" class="st0" width="14" height="332.8"/>
</g>
<g>
	<rect x="1.3" y="336.5" class="st0" width="509.7" height="14"/>
</g>
<g>
	<rect x="16.8" y="308.6" class="st0" width="14" height="34.9"/>
</g>
<g>
	<rect x="144.8" y="127.5" class="st0" width="14" height="216"/>
</g>
<g>
	<rect x="115.1" y="191.5" class="st0" width="14.5" height="152"/>
</g>
<g>
	<rect x="82.1" y="254.7" class="st0" width="14.3" height="88.8"/>
</g>
<g>
	<rect x="49.1" y="290.8" class="st0" width="14.5" height="52.7"/>
</g>
<g>
	<rect x="483.2" y="308.6" class="st0" width="14" height="34.9"/>
</g>
<g>
	<rect x="355.2" y="127.5" class="st0" width="14" height="216"/>
</g>
<g>
	<rect x="384.4" y="191.5" class="st0" width="14.5" height="152"/>
</g>
<g>
	<rect x="417.5" y="254.7" class="st0" width="14.3" height="88.8"/>
</g>
<g>
	<rect x="450.4" y="290.8" class="st0" width="14.5" height="52.7"/>
</g>
</svg>
