<?xml version="1.0" encoding="utf-8"?>
<!-- Generator: Adobe Illustrator 19.2.0, SVG Export Plug-In . SVG Version: 6.00 Build 0)  -->
<svg version="1.1" id="Layer_1" xmlns="http://www.w3.org/2000/svg" xmlns:xlink="http://www.w3.org/1999/xlink" x="0px" y="0px"
	 viewBox="0 0 673.2 669.3" style="enable-background:new 0 0 673.2 669.3;" xml:space="preserve">
<style type="text/css">
	.st0{fill:#060606;}
	.st1{fill:#FFFFFF;}
</style>
<path class="st0" d="M118.3,669.3H88.2c-17.4,0-31.4-14.1-31.4-31.4V31.4C56.8,14.1,70.8,0,88.2,0h30.2c17.4,0,31.4,14.1,31.4,31.4
	v606.5C149.8,655.3,135.7,669.3,118.3,669.3z"/>
<circle class="st1" cx="104.1" cy="199.3" r="104.1"/>
<circle class="st0" cx="104.1" cy="199.3" r="71.2"/>
<path class="st0" d="M352.3,669.3h-30.2c-17.4,0-31.4-14.1-31.4-31.4V31.4c0-17.4,14.1-31.4,31.4-31.4h30.2
	c17.4,0,31.4,14.1,31.4,31.4v606.5C383.7,655.3,369.7,669.3,352.3,669.3z"/>
<circle class="st1" cx="338.1" cy="435.3" r="104.1"/>
<circle class="st0" cx="338.1" cy="435.3" r="71.2"/>
<path class="st0" d="M583.3,669.3h-30.2c-17.4,0-31.4-14.1-31.4-31.4V31.4c0-17.4,14.1-31.4,31.4-31.4h30.2
	c17.4,0,31.4,14.1,31.4,31.4v606.5C614.7,655.3,600.7,669.3,583.3,669.3z"/>
<circle class="st1" cx="569.1" cy="284.3" r="104.1"/>
<circle class="st0" cx="569.1" cy="284.3" r="71.2"/>
</svg>
