<?xml version="1.0" encoding="utf-8"?>
<!-- Generator: Adobe Illustrator 19.2.0, SVG Export Plug-In . SVG Version: 6.00 Build 0)  -->
<svg version="1.1" id="Layer_1" xmlns="http://www.w3.org/2000/svg" xmlns:xlink="http://www.w3.org/1999/xlink" x="0px" y="0px"
	 viewBox="0 0 335.4 334" style="enable-background:new 0 0 335.4 334;" xml:space="preserve">
<style type="text/css">
	.st0{fill:none;stroke:#2D3D4F;stroke-width:15;stroke-miterlimit:10;}
</style>
<path class="st0" d="M80.7,85.5H12.3c-2.7,0-4.8-2.2-4.8-4.8V12.3c0-2.7,2.2-4.8,4.8-4.8h68.4c2.7,0,4.8,2.2,4.8,4.8v68.4
	C85.5,83.3,83.3,85.5,80.7,85.5z"/>
<path class="st0" d="M201.9,85.5h-68.4c-2.7,0-4.8-2.2-4.8-4.8V12.3c0-2.7,2.2-4.8,4.8-4.8h68.4c2.7,0,4.8,2.2,4.8,4.8v68.4
	C206.7,83.3,204.6,85.5,201.9,85.5z"/>
<path class="st0" d="M323.1,85.5h-68.4c-2.7,0-4.8-2.2-4.8-4.8V12.3c0-2.7,2.2-4.8,4.8-4.8h68.4c2.7,0,4.8,2.2,4.8,4.8v68.4
	C327.9,83.3,325.8,85.5,323.1,85.5z"/>
<path class="st0" d="M80.7,206H12.3c-2.7,0-4.8-2.2-4.8-4.8v-68.4c0-2.7,2.2-4.8,4.8-4.8h68.4c2.7,0,4.8,2.2,4.8,4.8v68.4
	C85.5,203.8,83.3,206,80.7,206z"/>
<path class="st0" d="M201.9,206h-68.4c-2.7,0-4.8-2.2-4.8-4.8v-68.4c0-2.7,2.2-4.8,4.8-4.8h68.4c2.7,0,4.8,2.2,4.8,4.8v68.4
	C206.7,203.8,204.6,206,201.9,206z"/>
<path class="st0" d="M323.1,206h-68.4c-2.7,0-4.8-2.2-4.8-4.8v-68.4c0-2.7,2.2-4.8,4.8-4.8h68.4c2.7,0,4.8,2.2,4.8,4.8v68.4
	C327.9,203.8,325.8,206,323.1,206z"/>
<path class="st0" d="M80.7,326.5H12.3c-2.7,0-4.8-2.2-4.8-4.8v-68.4c0-2.7,2.2-4.8,4.8-4.8h68.4c2.7,0,4.8,2.2,4.8,4.8v68.4
	C85.5,324.3,83.3,326.5,80.7,326.5z"/>
<path class="st0" d="M201.9,326.5h-68.4c-2.7,0-4.8-2.2-4.8-4.8v-68.4c0-2.7,2.2-4.8,4.8-4.8h68.4c2.7,0,4.8,2.2,4.8,4.8v68.4
	C206.7,324.3,204.6,326.5,201.9,326.5z"/>
<path class="st0" d="M323.1,326.5h-68.4c-2.7,0-4.8-2.2-4.8-4.8v-68.4c0-2.7,2.2-4.8,4.8-4.8h68.4c2.7,0,4.8,2.2,4.8,4.8v68.4
	C327.9,324.3,325.8,326.5,323.1,326.5z"/>
</svg>
