<?xml version="1.0" encoding="utf-8"?>
<!-- Generator: Adobe Illustrator 19.2.0, SVG Export Plug-In . SVG Version: 6.00 Build 0)  -->
<svg version="1.1" id="Layer_1" xmlns="http://www.w3.org/2000/svg" xmlns:xlink="http://www.w3.org/1999/xlink" x="0px" y="0px"
	 viewBox="0 0 210.2 261.7" style="enable-background:new 0 0 210.2 261.7;" xml:space="preserve">
<style type="text/css">
	.st0{fill:#3E3F40;}
</style>
<g>
	<path class="st0" d="M107.1,13C88.9,13.4,71.6,16.5,56,26.3C36.6,38.5,25.6,56.7,19.7,78.2c-2.2,8-3.1,16.3-4.2,24.5
		c-0.7,5.1-3.1,7.9-7.3,7.6c-4-0.3-6.5-3.3-6.1-8.1c2.2-28.7,11-54.7,32-75.5C48,12.9,65.3,5,84.7,1.9c20.8-3.3,41.5-2.7,61.6,4.4
		c31.5,11.1,50.3,34,58.9,65.4c8.4,30.8,6.2,61.3-5.4,91.1c-0.3,0.8-0.6,1.5-1,2.3c-2,4-5.4,5.4-9,3.9c-3.5-1.5-4.9-5.2-3.2-9.2
		c5.1-12.2,8.3-24.9,9.4-38.1c2.3-26.7-1.3-52.2-16.9-74.8c-13.4-19.4-32.6-29.3-55.6-32.4C118,13.7,112.5,13.5,107.1,13z"/>
	<path class="st0" d="M190.9,102.7c-0.1,13.2-3.9,25.6-6.9,38.2c-1.5,6.3-2.9,12.6-3.8,19.1c-1.4,10.4,2,19,10.5,25.4
		c0.7,0.5,1.3,1,1.9,1.6c3.1,2.9,3.5,6.3,1.2,9.3c-2.2,2.8-6.1,3.4-9.4,1.1c-10.9-7.8-17.4-18.1-17.8-31.8
		c-0.3-10.8,2.8-21,5.1-31.4c2.1-9.2,4.7-18.5,5.5-27.8c1.4-16.8-5.1-31.3-15.4-44.2C149,45.9,132.4,36,111.6,33.8
		c-21.5-2.2-39.3,5.5-53.7,21c-13.2,14.2-21.7,30.8-23.7,50.6c-0.5,4.8-2.5,9.7-5,13.9c-4.5,7.5-13.9,10.5-22.3,8.2
		c-4.2-1.2-6.1-3.8-5.4-7.6c0.6-3.6,3.7-5.7,7.7-5.4c7.6,0.7,10.4-1.1,11.4-8.9c1.6-12.8,4.8-25.1,11-36.6c11-20.4,26-37,48.5-44.5
		c30.3-10,57.5-2.9,81.3,17.6c15.3,13.2,25.1,30,28.7,50.1C190.6,95.7,190.6,99.2,190.9,102.7z"/>
	<path class="st0" d="M171,102.2c-0.3,10.2-3.4,19.8-5.9,29.4c-1.3,5-2.7,9.9-4.1,14.9c-4.1,15.1-1.5,29.1,7.8,41.6
		c4.1,5.5,8.7,10.5,13.2,15.7c3.5,4,3.9,7.6,0.7,10.5c-2.9,2.7-7,2.5-10.1-1.1c-5.8-6.6-11.7-13.2-16.7-20.4
		c-11.4-16.5-12.4-34.6-7-53.5c2.8-9.7,5.7-19.5,7.4-29.5c3.4-19.3-3.9-34.9-19.6-45.9c-15.8-11-33.3-15.7-51.8-7
		c-15.8,7.5-24.4,21.1-28.5,37.7c-1.4,5.6-1.8,11.5-3,17.2c-4.6,21.9-23.5,37-46,36.8c-4.4,0-7.4-2.5-7.5-6.3
		c-0.2-3.9,2.8-6.2,7.4-7c5.8-1.1,11.9-2.2,17.1-4.7c11.6-5.5,15.7-16,17-28.1c1.5-14,5.9-27,14.5-38.2C72,43.6,92.8,35,118.5,41.3
		c25.3,6.1,43.2,20.8,50.3,46.6C170.2,92.5,170.3,97.4,171,102.2z"/>
	<path class="st0" d="M152.7,104.1c0.3,10.9-3.5,20.3-5.7,30c-2,8.6-4.1,17.1-5.5,25.8c-1.8,11.5,0.9,22.4,7.8,31.7
		c6.5,8.8,14.1,16.7,21.3,25.1c0.3,0.4,0.8,0.6,1.1,1c3.4,3.3,3.9,7.2,1.2,10.1c-2.6,2.9-6.8,2.9-10.2-0.3
		c-9.8-9.1-18.9-18.8-25.9-30.3c-6.4-10.7-10-22.2-9-34.7c0.5-6.8,1.8-13.5,3.3-20.2c2.2-9.9,5.2-19.6,7.5-29.5
		c5.7-24.1-14.1-43.1-38-41.3c-8.6,0.6-14.6,4.9-18.9,12.1c-5.2,8.9-7.4,18.9-9,28.9c-4.5,28.6-23.4,48.2-52.2,53.7
		c-3.1,0.6-6.3,1-9.4,1.2c-4.7,0.2-7.4-2-7.7-5.9c-0.3-4.2,2.2-6.4,7.1-7.3c5.7-1,11.5-1.9,16.9-3.9c18.7-6.6,28.9-20.2,32.2-39.6
		c1.4-8.2,3.1-16.4,6-24.1c8.7-23.3,24.7-31.9,49.1-27.3C137.1,63.7,152.7,82.4,152.7,104.1z"/>
	<path class="st0" d="M133.1,104.1c-5.5,55.2-33.2,100.4-94.7,117c-5.2,1.4-9.1-0.6-9.8-4.7c-0.7-3.8,1.5-6.4,5.8-8
		c9-3.3,18.4-6,26.9-10.3c30.7-15.7,47.9-41.8,55.2-74.8c1.5-6.6,2.5-13.4,2.9-20.2c0.4-6.6-2.4-9.8-8.3-11.2
		c-6.9-1.7-11.6-0.2-14.2,5.8c-2,4.6-3.5,9.7-4.1,14.8C88,151.6,58.9,180.3,19.9,184c-2.3,0.2-5.3-0.1-7-1.5
		c-1.5-1.3-2.3-4.3-2.2-6.5c0.2-2.9,2.6-4.3,5.5-4.8c5.1-0.8,10.2-1.4,15.2-2.8c26.4-7.4,44.1-28.4,48.1-58.2c1.1-8.2,3-16,8-22.8
		c6.3-8.5,16.2-11.2,28.3-8c9.6,2.6,15.6,9.8,16.7,20.1C132.8,101.1,133,102.8,133.1,104.1z"/>
	<path class="st0" d="M114.1,199.4C97.8,216,78.4,226.7,57,233.9c-1.1,0.4-2.2,0.7-3.3,1c-5.1,1.5-8.8,0.1-10-3.6
		c-1.3-4.2,0.8-7.2,6.2-9c18.7-6.1,36.2-14.4,50.5-28.2c5.7-5.5,10.1-12.3,15.1-18.5c1.4-1.7,2.6-3.7,4.4-6.3
		c0.7,3.3,1.3,5.5,1.7,7.7c3.4,20.3,14.2,36.3,29.4,49.6c1.3,1.1,2.6,2.1,3.8,3.2c3.3,2.9,4,6.8,1.7,9.6c-2.5,3.1-6.5,3.6-10.1,0.5
		c-4.7-4-9.3-8.1-13.6-12.5C125,219.4,118.9,210.1,114.1,199.4z"/>
	<path class="st0" d="M112.6,108.7c-2.2,33.8-17.5,60.2-46.2,78.7c-11.7,7.5-24.3,13-37.8,16.3c-1,0.2-1.9,0.5-2.9,0.6
		c-4.2,0.5-7.3-1.4-8-4.9c-0.8-3.8,1.3-6.7,5.6-8.1c7.9-2.6,16-4.7,23.5-8.2C72.3,171,90.6,152.2,97,123.7
		c1.4-6.4,1.4-13.2,2.6-19.7c0.4-2.1,2-4.9,3.8-5.7c1.8-0.9,4.8-0.2,6.9,0.7c1.3,0.6,2,2.9,2.4,4.6C113,105,112.6,106.8,112.6,108.7
		z"/>
	<path class="st0" d="M109.5,230.8c-12.6,6.1-24.8,12-37.1,17.9c-0.7,0.4-1.5,0.7-2.3,1c-4.8,2-8.6,0.9-10.3-2.7
		c-1.7-3.7,0.2-7.2,4.9-9.4c11.2-5.4,22.4-10.7,33.5-16.5c5-2.6,9.5-6,14.7-9.2c2.1,3.1,4.2,6.3,6.3,9.4c6.1,8.5,12.2,17,20.8,23.3
		c3.3,2.4,3.8,6.3,1.7,9.2c-2.2,3-6.6,4-9.7,1.3c-6-5.4-11.6-11.4-17.2-17.2C112.9,235.7,111.3,233.2,109.5,230.8z"/>
	<path class="st0" d="M108.3,235.8c3.6,5.4,7.2,10.6,10.5,16c2,3.3,1,6.9-1.8,8.8c-3,2-6.9,1.4-9.3-1.7c-1.2-1.6-2.2-3.3-3.5-5.1
		c-3.2,1.9-6.2,3.7-9.2,5.4c-4.1,2.3-8.1,1.5-10.1-1.9c-1.9-3.3-0.6-7.2,3.4-9.6C94.7,243.7,101.3,239.9,108.3,235.8z"/>
</g>
</svg>
