<?xml version="1.0" encoding="utf-8"?>
<!-- Generator: Adobe Illustrator 19.2.0, SVG Export Plug-In . SVG Version: 6.00 Build 0)  -->
<svg version="1.1" id="Layer_1" xmlns="http://www.w3.org/2000/svg" xmlns:xlink="http://www.w3.org/1999/xlink" x="0px" y="0px"
	 viewBox="0 0 19.3 19.9" style="enable-background:new 0 0 19.3 19.9;" xml:space="preserve">
<style type="text/css">
	.st0{fill:none;stroke:#333333;stroke-width:1.5;stroke-miterlimit:10;}
	.st1{fill:#333333;}
</style>
<polyline class="st0" points="1.4,9.5 5.3,7.2 9.4,3.8 13.4,4.7 17.4,1.2 "/>
<circle class="st1" cx="1.4" cy="9.3" r="1.4"/>
<circle class="st1" cx="5.4" cy="6.9" r="1.4"/>
<circle class="st1" cx="9.4" cy="3.7" r="1.4"/>
<circle class="st1" cx="13.5" cy="4.5" r="1.4"/>
<circle class="st1" cx="17.4" cy="1.4" r="1.4"/>
<path class="st1" d="M2.4,19.9H0.8c-0.4,0-0.8-0.4-0.8-0.8v-4.8c0-0.4,0.4-0.8,0.8-0.8h1.6c0.4,0,0.8,0.4,0.8,0.8v4.8
	C3.2,19.6,2.8,19.9,2.4,19.9z"/>
<path class="st1" d="M6.3,19.9H4.9C4.4,19.9,4,19.5,4,19v-6.2C4,12.4,4.4,12,4.9,12h1.4c0.5,0,0.9,0.4,0.9,0.9V19
	C7.2,19.5,6.8,19.9,6.3,19.9z"/>
<path class="st1" d="M10.2,19.9H9.1c-0.6,0-1-0.5-1-1v-8.4c0-0.6,0.5-1,1-1h1.1c0.6,0,1,0.5,1,1v8.4C11.2,19.5,10.8,19.9,10.2,19.9z
	"/>
<path class="st1" d="M14.3,19.9H13c-0.5,0-0.9-0.4-0.9-0.9V12c0-0.5,0.4-0.9,0.9-0.9h1.3c0.5,0,0.9,0.4,0.9,0.9V19
	C15.2,19.5,14.8,19.9,14.3,19.9z"/>
<path class="st1" d="M18.2,19.9h-1c-0.6,0-1.1-0.5-1.1-1.1V9c0-0.6,0.5-1.1,1.1-1.1h1c0.6,0,1.1,0.5,1.1,1.1v9.8
	C19.3,19.4,18.8,19.9,18.2,19.9z"/>
</svg>
