<?xml version="1.0" encoding="utf-8"?>
<!-- Generator: Adobe Illustrator 19.2.0, SVG Export Plug-In . SVG Version: 6.00 Build 0)  -->
<svg version="1.1" id="Layer_1" xmlns="http://www.w3.org/2000/svg" xmlns:xlink="http://www.w3.org/1999/xlink" x="0px" y="0px"
	 viewBox="0 0 17.2 19.2" style="enable-background:new 0 0 17.2 19.2;" xml:space="preserve">
<style type="text/css">
	.st0{fill:#333333;}
</style>
<g>
	<ellipse class="st0" cx="8.6" cy="3.5" rx="8.4" ry="3.5"/>
	<path class="st0" d="M0.2,5.4V8c0,0,0.4,3,8.4,3.2c7.4,0.2,8.6-3.3,8.6-3.3V5.2c0,0-1.5,3-8.6,3S0.2,5.4,0.2,5.4z"/>
	<path class="st0" d="M0,9.4V12c0,0,0.4,3,8.4,3.2c7.4,0.2,8.6-3.3,8.6-3.3V9.3c0,0-1.5,3-8.6,3S0,9.4,0,9.4z"/>
	<path class="st0" d="M0.2,13.4v2.6c0,0,0.4,3,8.4,3.2c7.4,0.2,8.6-3.3,8.6-3.3v-2.7c0,0-1.5,3-8.6,3S0.2,13.4,0.2,13.4z"/>
</g>
</svg>
