<?xml version="1.0" encoding="utf-8"?>
<!-- Generator: Adobe Illustrator 19.2.0, SVG Export Plug-In . SVG Version: 6.00 Build 0)  -->
<svg version="1.1" id="Layer_1" xmlns="http://www.w3.org/2000/svg" xmlns:xlink="http://www.w3.org/1999/xlink" x="0px" y="0px"
	 viewBox="0 0 20.8 20.8" style="enable-background:new 0 0 20.8 20.8;" xml:space="preserve">
<style type="text/css">
	.st0{fill:#333333;}
</style>
<path class="st0" d="M2.4,12.8H0.8C0.3,12.8,0,12.4,0,12V8.7c0-0.4,0.3-0.8,0.8-0.8h1.6c0.4,0,0.8,0.3,0.8,0.8V12
	C3.2,12.4,2.8,12.8,2.4,12.8z"/>
<path class="st0" d="M10.4,18.5H8.8c-0.4,0-0.8-0.3-0.8-0.8v-3.3c0-0.4,0.3-0.8,0.8-0.8h1.6c0.4,0,0.8,0.3,0.8,0.8v3.3
	C11.2,18.1,10.9,18.5,10.4,18.5z"/>
<path class="st0" d="M10.4,7.3H8.8C8.4,7.3,8,6.9,8,6.5V3.2c0-0.4,0.3-0.8,0.8-0.8h1.6c0.4,0,0.8,0.3,0.8,0.8v3.3
	C11.2,6.9,10.9,7.3,10.4,7.3z"/>
<path class="st0" d="M20.1,4h-1.8c-0.4,0-0.7-0.3-0.7-0.7V0.7c0-0.4,0.3-0.7,0.7-0.7h1.8c0.4,0,0.7,0.3,0.7,0.7v2.6
	C20.8,3.7,20.5,4,20.1,4z"/>
<path class="st0" d="M20.1,9.6h-1.8c-0.4,0-0.7-0.3-0.7-0.7V6.3c0-0.4,0.3-0.7,0.7-0.7h1.8c0.4,0,0.7,0.3,0.7,0.7v2.6
	C20.8,9.3,20.5,9.6,20.1,9.6z"/>
<path class="st0" d="M20.1,15.2h-1.8c-0.4,0-0.7-0.3-0.7-0.7v-2.6c0-0.4,0.3-0.7,0.7-0.7h1.8c0.4,0,0.7,0.3,0.7,0.7v2.6
	C20.8,14.8,20.5,15.2,20.1,15.2z"/>
<path class="st0" d="M20.1,20.8h-1.8c-0.4,0-0.7-0.3-0.7-0.7v-2.6c0-0.4,0.3-0.7,0.7-0.7h1.8c0.4,0,0.7,0.3,0.7,0.7v2.6
	C20.8,20.4,20.5,20.8,20.1,20.8z"/>
<path class="st0" d="M3.2,9.6h1.7L4.8,4.8C4.8,4.4,5.2,4,5.6,4h8.7l0.1-2.3c0-0.5,0.4-0.9,0.9-0.9h2.4v1.6H16l0,4.8h1.9v1.7
	l-2.7-0.1c-0.4,0-0.8-0.4-0.8-0.8l0-2.4h-8l0,9.6h8v-2.3c0-0.4,0.4-0.8,0.8-0.8h3.3v1.6h-2.5l0,4.8h2l0,1.6h-2.9
	c-0.4,0-0.7-0.3-0.7-0.7l0-2.4H5.7c-0.5,0-0.9-0.4-0.9-0.9v-4.7H3V9.5L3.2,9.6z"/>
</svg>
