<?xml version="1.0" encoding="utf-8"?>
<!-- Generator: Adobe Illustrator 19.2.0, SVG Export Plug-In . SVG Version: 6.00 Build 0)  -->
<svg version="1.1" id="Layer_1" xmlns="http://www.w3.org/2000/svg" xmlns:xlink="http://www.w3.org/1999/xlink" x="0px" y="0px"
	 viewBox="0 0 119.7 68.5" style="enable-background:new 0 0 119.7 68.5;" xml:space="preserve">
<style type="text/css">
	.st0{fill:none;}
	.st1{fill:#0A0A0A;}
</style>
<g>
	<rect x="80.1" y="51" class="st0" width="10.2" height="7.8"/>
	<polygon class="st0" points="75.2,42.1 80.1,47.1 80.1,50 90.3,50 90.3,42.1 	"/>
	<polygon class="st0" points="104.8,29.5 104.8,41.1 118.7,41.1 118.7,21.1 98.7,1 40.6,1 40.6,8.9 84.2,8.9 	"/>
	<rect x="91.3" y="42.1" class="st0" width="12.5" height="7.9"/>
	<polygon class="st1" points="79.1,47.5 79.1,50 80.1,50 80.1,47.1 75.2,42.1 73.8,42.1 	"/>
	<rect x="79.1" y="51" class="st1" width="1" height="7.8"/>
	<polygon class="st1" points="79.1,67.5 1,67.5 1,27.4 11.2,27.4 11.2,26.4 0,26.4 0,68.5 80.1,68.5 80.1,59.8 79.1,59.8 	"/>
	<rect x="25.7" y="26.4" class="st1" width="13.9" height="1"/>
	<polygon class="st1" points="40.6,26.4 40.6,27.4 59.2,27.4 72.8,41.1 74.2,41.1 59.6,26.4 	"/>
	<rect x="12.2" y="26.4" class="st1" width="12.5" height="1"/>
	<rect x="25.7" y="17.7" class="st1" width="13.9" height="1"/>
	<polygon class="st1" points="90.3,58.8 80.1,58.8 80.1,59.8 91.3,59.8 91.3,51 90.3,51 	"/>
	<polygon class="st1" points="70.4,18.7 90.3,38.8 90.3,41.1 91.3,41.1 91.3,38.4 70.8,17.7 40.6,17.7 40.6,18.7 	"/>
	<rect x="90.3" y="42.1" class="st1" width="1" height="7.9"/>
	<polygon class="st1" points="12.2,18.7 24.7,18.7 24.7,17.7 11.2,17.7 11.2,26.4 12.2,26.4 	"/>
	<rect x="79.1" y="58.8" class="st1" width="1" height="1"/>
	<rect x="11.2" y="26.4" class="st1" width="1" height="1"/>
	<polygon class="st1" points="25.7,9.9 39.6,9.9 39.6,8.9 24.7,8.9 24.7,17.7 25.7,17.7 	"/>
	<polygon class="st1" points="83.8,9.9 103.8,30 103.8,41.1 104.8,41.1 104.8,29.5 84.2,8.9 40.6,8.9 40.6,9.9 	"/>
	<polygon class="st1" points="103.8,50 91.3,50 91.3,51 104.8,51 104.8,42.1 103.8,42.1 	"/>
	<rect x="79.1" y="50" class="st1" width="1" height="1"/>
	<rect x="24.7" y="26.4" class="st1" width="1" height="1"/>
	<rect x="24.7" y="17.7" class="st1" width="1" height="1"/>
	<rect x="90.3" y="50" class="st1" width="1" height="1"/>
	<polygon class="st1" points="119.7,20.7 99.1,0 39.6,0 39.6,8.9 40.6,8.9 40.6,1 98.7,1 118.7,21.1 118.7,41.1 104.8,41.1 
		104.8,42.1 119.7,42.1 	"/>
	<rect x="39.6" y="26.4" class="st1" width="1" height="1"/>
	<polygon class="st1" points="72.8,41.1 73.8,42.1 75.2,42.1 74.2,41.1 	"/>
	<rect x="90.3" y="41.1" class="st1" width="1" height="1"/>
	<rect x="39.6" y="17.7" class="st1" width="1" height="1"/>
	<rect x="103.8" y="41.1" class="st1" width="1" height="1"/>
	<rect x="39.6" y="8.9" class="st1" width="1" height="1"/>
</g>
</svg>
