<?xml version="1.0" encoding="utf-8"?>
<!-- Generator: Adobe Illustrator 19.2.0, SVG Export Plug-In . SVG Version: 6.00 Build 0)  -->
<svg version="1.1" id="Layer_1" xmlns="http://www.w3.org/2000/svg" xmlns:xlink="http://www.w3.org/1999/xlink" x="0px" y="0px"
	 viewBox="0 0 506.4 505.4" style="enable-background:new 0 0 506.4 505.4;" xml:space="preserve">
<style type="text/css">
	.st0{fill:#2B2B28;}
	.st1{fill:#2C2C29;}
</style>
<g>
	<path class="st0" d="M192.9,385.8C86.5,385.8,0,299.3,0,192.9C0,86.5,86.5,0,192.9,0s192.9,86.5,192.9,192.9
		C385.8,299.3,299.3,385.8,192.9,385.8z M192.9,31.2c-89.2,0-161.7,72.6-161.7,161.7c0,89.2,72.6,161.7,161.7,161.7
		s161.7-72.6,161.7-161.7C354.6,103.7,282.1,31.2,192.9,31.2z"/>
</g>
<polygon class="st1" points="313.2,341.3 339,366.6 369,333.9 342.3,309.2 "/>
<path class="st1" d="M497.3,470.8l-25.5,25.5c-12.1,12.1-31.7,12.1-43.8,0l-91.2-91.2c-12.1-12.1-12.1-31.7,0-43.8l25.5-25.5
	c12.1-12.1,31.7-12.1,43.8,0l91.2,91.2C509.4,439.1,509.4,458.7,497.3,470.8z"/>
<path class="st1" d="M88.6,124.6c0,0-14,70.7,32.7,121.3s107.3,45.3,120.7,42c13.3-3.3-77.3,56.7-145.3-16.7S88.6,124.6,88.6,124.6z
	"/>
</svg>
