<?xml version="1.0" encoding="utf-8"?>
<!-- Generator: Adobe Illustrator 19.2.0, SVG Export Plug-In . SVG Version: 6.00 Build 0)  -->
<svg version="1.1" id="Layer_1" xmlns="http://www.w3.org/2000/svg" xmlns:xlink="http://www.w3.org/1999/xlink" x="0px" y="0px"
	 viewBox="0 0 129.8 105.4" style="enable-background:new 0 0 129.8 105.4;" xml:space="preserve">
<style type="text/css">
	.st0{fill:none;stroke:#000000;stroke-width:5.9026;stroke-miterlimit:10;}
	.st1{fill:none;stroke:#000000;stroke-width:2;stroke-miterlimit:10;}
</style>
<path class="st0" d="M112.5,102.5H17.3C9.4,102.5,3,96,3,88.1V17.3C3,9.4,9.4,3,17.3,3h95.2c7.9,0,14.3,6.4,14.3,14.3v70.8
	C126.8,96,120.4,102.5,112.5,102.5z"/>
<line class="st1" x1="33.3" y1="3" x2="33.3" y2="102.5"/>
<line class="st1" x1="64.9" y1="3" x2="64.9" y2="102.5"/>
<line class="st1" x1="96.5" y1="3" x2="96.5" y2="102.5"/>
<rect x="10.3" y="14.1" width="16" height="10"/>
<rect x="10.3" y="29.8" width="16" height="10"/>
<rect x="10.3" y="45.6" width="16" height="10"/>
<rect x="41.1" y="14.1" width="16" height="10"/>
<rect x="41.1" y="29.8" width="16" height="10"/>
<rect x="41.1" y="45.6" width="16" height="10"/>
<rect x="71.9" y="14.1" width="16" height="10"/>
<rect x="71.9" y="29.8" width="16" height="10"/>
<rect x="102.8" y="14.1" width="16" height="10"/>
</svg>
