<?xml version="1.0" encoding="utf-8"?>
<!-- Generator: Adobe Illustrator 19.2.0, SVG Export Plug-In . SVG Version: 6.00 Build 0)  -->
<svg version="1.1" id="Layer_1" xmlns="http://www.w3.org/2000/svg" xmlns:xlink="http://www.w3.org/1999/xlink" x="0px" y="0px"
	 viewBox="0 0 431.6 432" style="enable-background:new 0 0 431.6 432;" xml:space="preserve">
<path d="M271.1,339.8c0,2.3-1.9,4.2-4.2,4.2H34c-2.3,0-4.2-1.9-4.2-4.2V34c0-2.3,1.9-4.2,4.2-4.2h233c2.3,0,4.2,1.9,4.2,4.2v118.4
	h29.8V34c0-18.7-15.2-34-34-34H34C15.2,0,0,15.2,0,34v305.9c0,18.7,15.2,34,34,34h233c18.7,0,34-15.2,34-34v-82.4h-29.8V339.8z"/>
<path d="M427.6,196.3l-87.8-63.8c-6.6-4.8-15.8,0-15.7,8.1l0.5,41.6h-34.1h-29.8H240c-12.4,0-22.5,10.1-22.5,22.5
	s10.1,22.5,22.5,22.5h20.6h29.8h34.7l0.5,41c0.1,8.1,9.3,12.6,15.8,7.8l86.3-63.8C433,208.2,433,200.2,427.6,196.3z"/>
<path d="M19.8,21.6l111.6,73.7c7.4,4.9,11.8,13.1,11.8,22v303.2c0,8.8-9.5,14.4-17.1,10.1L15.7,368.7L19.8,21.6z"/>
</svg>
