<?xml version="1.0" encoding="utf-8"?>
<!-- Generator: Adobe Illustrator 19.2.0, SVG Export Plug-In . SVG Version: 6.00 Build 0)  -->
<svg version="1.1" id="Layer_1" xmlns="http://www.w3.org/2000/svg" xmlns:xlink="http://www.w3.org/1999/xlink" x="0px" y="0px"
	 viewBox="0 0 72.3 69.8" style="enable-background:new 0 0 72.3 69.8;" xml:space="preserve">
<path d="M51.7,18.3H3.1c-1.7,0-3.1,1.4-3.1,3.1v45.4c0,1.7,1.4,3.1,3.1,3.1h48.6c1.7,0,3.1-1.4,3.1-3.1V21.4
	C54.8,19.7,53.4,18.3,51.7,18.3z M10.1,66.3H2v-6.8h8.1V66.3z M10.1,57.8H2V49h8.1V57.8z M10.1,47.2H2v-8h8.1V47.2z M10.1,37.4H2
	v-7.1h8.1V37.4z M21.5,66.3H12v-6.8h9.4V66.3z M21.5,57.8H12V49h9.4V57.8z M21.5,47.2H12v-8h9.4V47.2z M21.5,37.4H12v-7.1h9.4V37.4z
	 M32,66.3h-8.7v-6.8H32V66.3z M32,57.8h-8.7V49H32V57.8z M32,47.2h-8.7v-8H32V47.2z M32,37.4h-8.7v-7.1H32V37.4z M41.8,66.3h-8v-6.8
	h8V66.3z M41.8,57.8h-8V49h8V57.8z M41.8,47.2h-8v-8h8V47.2z M41.8,37.4h-8v-7.1h8V37.4z M52.7,66.3h-9.1v-6.8h9.1V66.3z M52.7,57.8
	h-9.1V49h9.1V57.8z M52.7,47.2h-9.1v-8h9.1V47.2z M52.7,37.4h-9.1v-7.1h9.1V37.4z"/>
<path d="M69.2,0H20.6c-1.7,0-3.1,1.4-3.1,3.1v13.6h2V12h8.1v4.6h1.9V12H39v4.6h1.9V12h8.7v4.6h1.8V12h8v7.1h-2.4
	c0,0.2,0.1,0.4,0.1,0.6v1.2h2.4v8h-2.4v1.8h2.4v8.8h-2.4v1.8h2.4V48h-2.4v3.5h12.3c1.7,0,3.1-1.4,3.1-3.1V3.1
	C72.3,1.4,70.9,0,69.2,0z M70.2,48h-9.1v-6.8h9.1V48z M70.2,39.5h-9.1v-8.8h9.1V39.5z M70.2,28.9h-9.1v-8h9.1V28.9z M70.2,19.1h-9.1
	V12h9.1V19.1z"/>
</svg>
