<?xml version="1.0" encoding="utf-8"?>
<!-- Generator: Adobe Illustrator 19.2.0, SVG Export Plug-In . SVG Version: 6.00 Build 0)  -->
<svg version="1.1" id="Layer_1" xmlns="http://www.w3.org/2000/svg" xmlns:xlink="http://www.w3.org/1999/xlink" x="0px" y="0px"
	 viewBox="0 0 148.7 85.2" style="enable-background:new 0 0 148.7 85.2;" xml:space="preserve">
<style type="text/css">
	.st0{fill:none;}
	.st1{fill:#0A0A0A;}
</style>
<g>
	<rect x="99.6" y="63.4" class="st0" width="12.7" height="9.7"/>
	<polygon class="st0" points="93.5,52.4 99.6,58.5 99.6,62.2 112.3,62.2 112.3,52.4 	"/>
	<polygon class="st0" points="130.2,36.7 130.2,51.1 147.5,51.1 147.5,26.2 122.7,1.2 50.4,1.2 50.4,11 104.7,11 	"/>
	<rect x="113.5" y="52.4" class="st0" width="15.5" height="9.8"/>
	<polygon class="st1" points="98.3,59 98.3,62.2 99.6,62.2 99.6,58.5 93.5,52.4 91.7,52.4 	"/>
	<rect x="98.3" y="63.4" class="st1" width="1.2" height="9.7"/>
	<polygon class="st1" points="98.3,84 1.2,84 1.2,34.1 13.9,34.1 13.9,32.8 0,32.8 0,85.2 99.6,85.2 99.6,74.4 98.3,74.4 	"/>
	<rect x="31.9" y="32.8" class="st1" width="17.3" height="1.2"/>
	<polygon class="st1" points="50.4,32.8 50.4,34.1 73.5,34.1 90.5,51.1 92.2,51.1 74,32.8 	"/>
	<rect x="15.2" y="32.8" class="st1" width="15.5" height="1.2"/>
	<rect x="31.9" y="22" class="st1" width="17.3" height="1.2"/>
	<polygon class="st1" points="112.3,73.1 99.6,73.1 99.6,74.4 113.5,74.4 113.5,63.4 112.3,63.4 	"/>
	<polygon class="st1" points="87.4,23.3 112.3,48.2 112.3,51.1 113.5,51.1 113.5,47.7 88,22 50.4,22 50.4,23.3 	"/>
	<rect x="112.3" y="52.4" class="st1" width="1.2" height="9.8"/>
	<polygon class="st1" points="15.2,23.3 30.7,23.3 30.7,22 13.9,22 13.9,32.8 15.2,32.8 	"/>
	<rect x="98.3" y="73.1" class="st1" width="1.2" height="1.2"/>
	<rect x="13.9" y="32.8" class="st1" width="1.2" height="1.2"/>
	<polygon class="st1" points="31.9,12.3 49.2,12.3 49.2,11 30.7,11 30.7,22 31.9,22 	"/>
	<polygon class="st1" points="104.2,12.3 129,37.2 129,51.1 130.2,51.1 130.2,36.7 104.7,11 50.4,11 50.4,12.3 	"/>
	<polygon class="st1" points="129,62.2 113.5,62.2 113.5,63.4 130.2,63.4 130.2,52.4 129,52.4 	"/>
	<rect x="98.3" y="62.2" class="st1" width="1.2" height="1.2"/>
	<rect x="30.7" y="32.8" class="st1" width="1.2" height="1.2"/>
	<rect x="30.7" y="22" class="st1" width="1.2" height="1.2"/>
	<rect x="112.3" y="62.2" class="st1" width="1.2" height="1.2"/>
	<polygon class="st1" points="148.7,25.7 123.2,0 49.2,0 49.2,11 50.4,11 50.4,1.2 122.7,1.2 147.5,26.2 147.5,51.1 130.2,51.1 
		130.2,52.4 148.7,52.4 	"/>
	<rect x="49.2" y="32.8" class="st1" width="1.2" height="1.2"/>
	<polygon class="st1" points="90.5,51.1 91.7,52.4 93.5,52.4 92.2,51.1 	"/>
	<rect x="112.3" y="51.1" class="st1" width="1.2" height="1.2"/>
	<rect x="49.2" y="22" class="st1" width="1.2" height="1.2"/>
	<rect x="129" y="51.1" class="st1" width="1.2" height="1.2"/>
	<rect x="49.2" y="11" class="st1" width="1.2" height="1.2"/>
</g>
</svg>
