<?xml version="1.0" encoding="utf-8"?>
<!-- Generator: Adobe Illustrator 19.2.0, SVG Export Plug-In . SVG Version: 6.00 Build 0)  -->
<svg version="1.1" id="Layer_1" xmlns="http://www.w3.org/2000/svg" xmlns:xlink="http://www.w3.org/1999/xlink" x="0px" y="0px"
	 viewBox="0 0 429.3 354.7" style="enable-background:new 0 0 429.3 354.7;" xml:space="preserve">
<style type="text/css">
	.st0{fill:#454545;}
</style>
<g>
	<rect x="47.9" y="118.7" class="st0" width="149" height="186"/>
	<rect x="212.4" y="118.7" class="st0" width="166.5" height="88"/>
	<rect x="212.4" y="223.2" class="st0" width="75" height="84.5"/>
	<rect x="306.4" y="223.2" class="st0" width="75" height="84.5"/>
	<path class="st0" d="M401.5,0H34.4C15.4,0,0,15.4,0,34.4v320.3h429.3V27.8C429.3,12.5,416.9,0,401.5,0z M179.4,30.9
		c8.7,0,15.8,7.1,15.8,15.8s-7.1,15.8-15.8,15.8s-15.8-7.1-15.8-15.8S170.7,30.9,179.4,30.9z M113.3,30.9c8.7,0,15.8,7.1,15.8,15.8
		s-7.1,15.8-15.8,15.8s-15.8-7.1-15.8-15.8S104.6,30.9,113.3,30.9z M51.4,30.9c8.7,0,15.8,7.1,15.8,15.8s-7.1,15.8-15.8,15.8
		s-15.8-7.1-15.8-15.8S42.7,30.9,51.4,30.9z M411.7,337.7h-394v-251h394V337.7z"/>
</g>
</svg>
